<svg width="32" height="32" viewBox="0 0 32 32" fill="none" xmlns="http://www.w3.org/2000/svg">
<g filter="url(#filter0_i_475_111)">
<path fill-rule="evenodd" clip-rule="evenodd" d="M16 32C16.4246 32 16.9159 31.9716 17.457 31.9086L18.1211 31.8145C18.1926 31.8044 18.2637 31.7937 18.3346 31.7824C18.625 31.7329 18.9254 31.6742 19.2338 31.6056C28.6844 29.3823 31.5236 16.8514 23.4665 10.8329C28.4523 13.9234 30.5621 19.4736 29.7269 24.6282C31.1089 22.4143 32 19.5866 32 16C32 7.16344 24.8366 0 16 0C7.16345 0 0 7.16344 0 16C0 24.8366 7.16345 32 16 32ZM22.6479 8.23255L21.5822 3.70601L20.5164 8.23255L15.9999 9.30067L20.5164 10.3688L21.5822 14.8953L22.6479 10.3688L27.1644 9.30067L22.6479 8.23255ZM12.8355 26.7973C16.6254 26.7973 19.6977 23.7181 19.6977 19.9198C19.6977 16.1215 16.6254 13.0423 12.8355 13.0423C9.04562 13.0423 5.97326 16.1215 5.97326 19.9198C5.97326 23.7181 9.04562 26.7973 12.8355 26.7973Z" fill="url(#paint0_linear_475_111)"/>
</g>
<defs>
<filter id="filter0_i_475_111" x="0" y="0" width="32" height="36" filterUnits="userSpaceOnUse" color-interpolation-filters="sRGB">
<feFlood flood-opacity="0" result="BackgroundImageFix"/>
<feBlend mode="normal" in="SourceGraphic" in2="BackgroundImageFix" result="shape"/>
<feColorMatrix in="SourceAlpha" type="matrix" values="0 0 0 0 0 0 0 0 0 0 0 0 0 0 0 0 0 0 127 0" result="hardAlpha"/>
<feOffset dy="4"/>
<feGaussianBlur stdDeviation="2"/>
<feComposite in2="hardAlpha" operator="arithmetic" k2="-1" k3="1"/>
<feColorMatrix type="matrix" values="0 0 0 0 0 0 0 0 0 0 0 0 0 0 0 0 0 0 0.25 0"/>
<feBlend mode="normal" in2="shape" result="effect1_innerShadow_475_111"/>
</filter>
<linearGradient id="paint0_linear_475_111" x1="22.5714" y1="4.28571" x2="6" y2="25.1429" gradientUnits="userSpaceOnUse">
<stop stop-color="#1697B7"/>
<stop offset="1" stop-color="#F3AD78"/>
</linearGradient>
</defs>
</svg>
